<svg xmlns="http://www.w3.org/2000/svg" width="840" height="520" viewBox="0 0 840 520">
<style>text{font-family:Inter,Helvetica,Arial,sans-serif;font-size:14px;fill:#1f2933;}</style>

<text x="420.0" y="40.0" text-anchor="middle" font-size="18" font-weight="600">Top origin airports – on-time arrival rate</text>
<line x1="80" y1="80" x2="80" y2="440" stroke="#cbd2d9" stroke-width="1"/>
<line x1="80" y1="440" x2="760" y2="440" stroke="#cbd2d9" stroke-width="1"/>
<line x1="80.0" y1="440" x2="80.0" y2="448" stroke="#cbd2d9" stroke-width="1"/>
<text x="80.0" y="468" text-anchor="middle">0</text>
<line x1="216.0" y1="440" x2="216.0" y2="448" stroke="#cbd2d9" stroke-width="1"/>
<text x="216.0" y="468" text-anchor="middle">16.3</text>
<line x1="352.0" y1="440" x2="352.0" y2="448" stroke="#cbd2d9" stroke-width="1"/>
<text x="352.0" y="468" text-anchor="middle">32.5</text>
<line x1="488.0" y1="440" x2="488.0" y2="448" stroke="#cbd2d9" stroke-width="1"/>
<text x="488.0" y="468" text-anchor="middle">48.8</text>
<line x1="624.0" y1="440" x2="624.0" y2="448" stroke="#cbd2d9" stroke-width="1"/>
<text x="624.0" y="468" text-anchor="middle">65</text>
<line x1="760.0" y1="440" x2="760.0" y2="448" stroke="#cbd2d9" stroke-width="1"/>
<text x="760.0" y="468" text-anchor="middle">81.3</text>
<text x="420.0" y="495" text-anchor="middle" font-size="13">On-time arrivals (%)</text>
<rect x="80" y="87.2" width="663.3950789028669" height="21.599999999999998" fill="#2563eb" rx="4"/>
<text x="70" y="103.0" text-anchor="end" font-weight="500">ATL</text>
<text x="751.3950789028669" y="103.0">79.3%</text>
<rect x="80" y="123.2" width="628.0332187944946" height="21.599999999999998" fill="#10b981" rx="4"/>
<text x="70" y="139.0" text-anchor="end" font-weight="500">DEN</text>
<text x="716.0332187944946" y="139.0">75.1%</text>
<rect x="80" y="159.2" width="590.9427248569713" height="21.599999999999998" fill="#f97316" rx="4"/>
<text x="70" y="175.0" text-anchor="end" font-weight="500">DFW</text>
<text x="678.9427248569713" y="175.0">70.6%</text>
<rect x="80" y="195.2" width="577.3593351379283" height="21.599999999999998" fill="#a855f7" rx="4"/>
<text x="70" y="211.0" text-anchor="end" font-weight="500">ORD</text>
<text x="665.3593351379283" y="211.0">69%</text>
<rect x="80" y="231.2" width="626.7843845830223" height="21.599999999999998" fill="#ef4444" rx="4"/>
<text x="70" y="247.0" text-anchor="end" font-weight="500">CLT</text>
<text x="714.7843845830223" y="247.0">74.9%</text>
<rect x="80" y="267.2" width="666.3242254408719" height="21.599999999999998" fill="#2563eb" rx="4"/>
<text x="70" y="283.0" text-anchor="end" font-weight="500">PHX</text>
<text x="754.3242254408719" y="283.0">79.7%</text>
<rect x="80" y="303.2" width="680.0" height="21.599999999999998" fill="#10b981" rx="4"/>
<text x="70" y="319.0" text-anchor="end" font-weight="500">LAX</text>
<text x="768.0" y="319.0">81.3%</text>
<rect x="80" y="339.2" width="659.887819626467" height="21.599999999999998" fill="#f97316" rx="4"/>
<text x="70" y="355.0" text-anchor="end" font-weight="500">LAS</text>
<text x="747.887819626467" y="355.0">78.9%</text>
<rect x="80" y="375.2" width="619.9284366418968" height="21.599999999999998" fill="#a855f7" rx="4"/>
<text x="70" y="391.0" text-anchor="end" font-weight="500">MCO</text>
<text x="707.9284366418968" y="391.0">74.1%</text>
<rect x="80" y="411.2" width="653.1392658666949" height="21.599999999999998" fill="#ef4444" rx="4"/>
<text x="70" y="427.0" text-anchor="end" font-weight="500">SEA</text>
<text x="741.1392658666949" y="427.0">78.1%</text>
</svg>
